<?xml version="1.0"?>
<svg xmlns="http://www.w3.org/2000/svg" id="Outline" viewBox="0 0 64 64" width="512px" height="512px" class=""><g><path d="M42,40V38h1a1,1,0,0,0,1-1V33a1,1,0,0,0-1-1H38V26a6,6,0,0,0-12,0v6H21a1,1,0,0,0-1,1v4a1,1,0,0,0,1,1h1v2a10.018,10.018,0,0,0,7,9.539V56H28a3,3,0,0,0-3,3v2a1,1,0,0,0,1,1H38a1,1,0,0,0,1-1V59a3,3,0,0,0-3-3H35V49.539A10.018,10.018,0,0,0,42,40Zm0-6v2H38V34ZM28,32h8v8a4,4,0,0,1-8,0Zm4-10a4,4,0,0,1,4,4v4H28V26A4,4,0,0,1,32,22ZM22,34h4v2H22Zm2,6V38h2v2a6,6,0,0,0,12,0V38h2v2a8,8,0,0,1-16,0ZM37,59v1H27V59a1,1,0,0,1,1-1h8A1,1,0,0,1,37,59Zm-4-9v6H31V50Z" data-original="#000000" class="active-path" data-old_color="#000000" fill="#FFFFFF"/><path d="M30,27a.99.99,0,0,0,.92-1.38,1.155,1.155,0,0,0-.21-.33,1.047,1.047,0,0,0-1.42,0,1.032,1.032,0,0,0-.21.33A.99.99,0,0,0,30,27Z" data-original="#000000" class="active-path" data-old_color="#000000" fill="#FFFFFF"/><path d="M32.71,27.29a1.169,1.169,0,0,0-.33-.21,1.017,1.017,0,0,0-1.09.21,1.155,1.155,0,0,0-.21.33.99.99,0,0,0,1.3,1.3,1.169,1.169,0,0,0,.33-.21.99.99,0,0,0,.21-1.09A1.155,1.155,0,0,0,32.71,27.29Z" data-original="#000000" class="active-path" data-old_color="#000000" fill="#FFFFFF"/><path d="M33.29,26.71A1,1,0,0,0,35,26a1.05,1.05,0,0,0-.29-.71,1.712,1.712,0,0,0-.15-.12.776.776,0,0,0-.18-.09.646.646,0,0,0-.18-.06,1.009,1.009,0,0,0-.91.27,1.032,1.032,0,0,0-.21.33A.838.838,0,0,0,33,26,.99.99,0,0,0,33.29,26.71Z" data-original="#000000" class="active-path" data-old_color="#000000" fill="#FFFFFF"/><path d="M31.29,24.71A.991.991,0,0,0,32,25a1,1,0,0,0,.38-.07,1.484,1.484,0,0,0,.33-.22,1.169,1.169,0,0,0,.21-.33A1,1,0,0,0,33,24a1.05,1.05,0,0,0-.29-.71,1.169,1.169,0,0,0-.33-.21A.99.99,0,0,0,31,24a.838.838,0,0,0,.08.38A1.169,1.169,0,0,0,31.29,24.71Z" data-original="#000000" class="active-path" data-old_color="#000000" fill="#FFFFFF"/><path d="M32,39a3,3,0,1,0-3-3A3,3,0,0,0,32,39Zm0-4a1,1,0,1,1-1,1A1,1,0,0,1,32,35Z" data-original="#000000" class="active-path" data-old_color="#000000" fill="#FFFFFF"/><path d="M32,2A30.034,30.034,0,0,0,2,32H4a28,28,0,0,1,56,0h2A30.034,30.034,0,0,0,32,2Z" data-original="#000000" class="active-path" data-old_color="#000000" fill="#FFFFFF"/><path d="M56,32A24,24,0,0,0,8,32h2a22,22,0,0,1,44,0Z" data-original="#000000" class="active-path" data-old_color="#000000" fill="#FFFFFF"/><path d="M50,32a18,18,0,0,0-36,0h2a16,16,0,0,1,32,0Z" data-original="#000000" class="active-path" data-old_color="#000000" fill="#FFFFFF"/></g> </svg>
